# AST/ASF file generated using VICON BodyLanguage
# -----------------------------------------------
:version 1.10
:name VICON
:units
  mass 1.0
  length 0.45
  angle deg
:documentation
   .ast/.asf automatically generated from VICON data using
   VICON BodyBuilder and BodyLanguage model FoxedUp or BRILLIANT.MOD
:root
   order TX TY TZ RX RY RZ
   axis XYZ
   position 0 0 0  
   orientation 0 0 0 
:bonedata
  begin
     id 1 
     name lhipjoint
     direction 0.677091 -0.635792 0.370561 
     length 2.74323 
     axis 0 0 0  XYZ
  end
  begin
     id 2 
     name lfemur
     direction 0.34202 -0.939693 0  
     length 7.44995  
     axis 0 0 20  XYZ
    dof rx ry rz
    limits (-160.0 20.0)
           (-70.0 70.0)
           (-60.0 70.0)
  end
  begin
     id 3 
     name ltibia
     direction 0.34202 -0.939693 0   
     length 7.34467   
     axis 0 0 20   XYZ
    dof rx
    limits (-10.0 170.0)
  end
  begin
     id 4 
     name lfoot
     direction 0.101953 -0.280114 0.954537   
     length 1.72105   
     axis -90 7.62852e-016 20   XYZ
    dof rx rz
    limits (-45.0 90.0)
           (-70.0 20.0)
  end
  begin
     id 5 
     name ltoes
     direction 1.53537e-011 -4.21915e-011 1   
     length 0.865872   
     axis -90 7.62852e-016 20   XYZ
    dof rx
    limits (-90.0 20.0)
  end
  begin
     id 6 
     name rhipjoint
     direction -0.695735 -0.620586 0.361699   
     length 2.81045  
     axis 0 0 0  XYZ 
  end
  begin
     id 7 
     name rfemur
     direction -0.34202 -0.939693 0   
     length 7.29387   
     axis 0 0 -20   XYZ
    dof rx ry rz
    limits (-160.0 20.0)
           (-70.0 70.0)
           (-70.0 60.0)
  end
  begin
     id 8 
     name rtibia
     direction -0.34202 -0.939693 0   
     length 7.44935   
     axis 0 0 -20   XYZ
    dof rx
    limits (-10.0 170.0)
 end
 begin
     id 9 
     name rfoot
     direction -0.104163 -0.286184 0.952496   
     length 1.77731  
     axis -90 -7.62852e-016 -20   XYZ
    dof rx rz
    limits (-45.0 90.0)
           (-20.0 70.0)
  end
  begin
     id 10 
     name rtoes
     direction -1.5355e-011 -4.21888e-011 1   
     length 0.892424   
     axis -90 -7.62852e-016 -20   XYZ
    dof rx
    limits (-90.0 20.0)
  end
  begin
     id 11 
     name lowerback
     direction 0.0100202 0.997226 -0.0737589   
     length 2.16892   
     axis 0 0 0   XYZ
    dof rx ry rz
    limits (-20.0 45.0)
           (-30.0 30.0)
           (-30.0 30.0)
  end
  begin
     id 12 
     name upperback
     direction 0.00432398 0.999988 -0.00215019   
     length 2.17326   
     axis 0 0 0   XYZ
    dof rx ry rz
    limits (-20.0 45.0)
           (-30.0 30.0)
           (-30.0 30.0)
  end
  begin
     id 13 
     name thorax
     direction -0.00195047 0.999485 0.0320434   
     length 2.18139   
     axis 0 0 0   XYZ
    dof rx ry rz
    limits (-20.0 45.0)
           (-30.0 30.0)
           (-30.0 30.0)
  end
  begin
     id 14 
     name lowerneck
     direction 0.00782762 0.986241 0.165128   
     length 1.88415   
     axis 0 0 0   XYZ
    dof rx ry rz
    limits (-20.0 45.0)
           (-30.0 30.0)
           (-30.0 30.0)
  end
  begin
     id 15 
     name upperneck
     direction 0.00988667 0.981098 -0.193258   
     length 1.9242   
     axis 0 0 0   XYZ
    dof rx ry rz
    limits (-20.0 45.0)
           (-30.0 30.0)
           (-30.0 30.0)
  end
  begin
     id 16
     name head
     direction 0.00252199 0.996513 -0.0833958  
     length 1.93887  
     axis 0 0 0   XYZ
    dof rx ry rz
    limits (-20.0 45.0)
           (-30.0 30.0)
           (-30.0 30.0)
  end
  begin
     id 17 
     name lclavicle
     direction 0.929492 0.368193 -0.0218667  
     length 3.5955  
     axis 0 0 0   XYZ
    dof ry rz
    limits (-20.0 10.0)
           (0.0 20.0)
  end
  begin
     id 18 
     name lhumerus
     direction 1 -4.48972e-011 1.41911e-027   
     length 5.2795   
     axis 180 -30 -90   XYZ
    dof rx ry rz
    limits (-60.0 90.0)
           (-90.0 90.0)
           (-90.0 90.0)
  end
  begin
     id 19
     name lradius
     direction 1 -4.48963e-011 7.05772e-027   
     length 3.53504   
     axis 180 -30 -90   XYZ
    dof rx
    limits (-10.0 170.0)
  end
  begin
     id 20
     name lwrist
     direction 1 -4.48957e-011 9.54866e-027   
     length 1.76752   
     axis -7.69462e-015 90 90   XYZ
    dof ry
    limits (-180.0 0.0)
 end
  begin
     id 21 
     name lhand
     direction 1 -4.48979e-011 1.90973e-026   
     length 0.667948   
     axis -1.21857e-014 90 90   XYZ
    dof rx rz
    limits (-90.0 90.0)
           (-45.0 45.0)
  end
  begin
     id 22 
     name lfingers
     direction 1 -4.48987e-011 3.81946e-026   
     length 0.538517   
     axis -2.43714e-014 90 90   XYZ
    dof rx
    limits (0.0 90.0)
  end
  begin
     id 23
     name lthumb
     direction 0.707107 -6.34962e-011 0.707107   
     length 0.773206   
     axis -90 45 2.85299e-015   XYZ
    dof rx rz
    limits (-45.0 45.0)
           (-45.0 45.0)
  end
  begin
     id 24 
     name rclavicle
     direction -0.898763 0.414256 -0.143584   
     length 3.5176  
     axis 0 0 0   XYZ 
    dof ry rz
    limits (-10.0 20.0)
           (-20.0 0.0)
  end
  begin
     id 25 
     name rhumerus
     direction -1 -4.48971e-011 1.129e-027  
     length 5.25035   
     axis 180 30 90   XYZ
    dof rx ry rz
    limits (-90.0 60.0)
           (-90.0 90.0)
           (-90.0 90.0)
  end
  begin
     id 26 
     name rradius
     direction -1 -4.48955e-011 6.34664e-027   
     length 3.58884   
     axis 180 30 90   XYZ
    dof rx
    limits (-10.0 170.0)
  end
  begin
     id 27 
     name rwrist
     direction -1 -4.48966e-011 9.54866e-027   
     length 1.79442   
     axis -7.69462e-015 -90 -90   XYZ
    dof ry
    limits (-180.0 0.0)
  end
  begin
     id 28
     name rhand
     direction -1 -4.48973e-011 1.90973e-026   
     length 0.779235   
     axis -1.21857e-014 -90 -90   XYZ
    dof rx rz
    limits (-90.0 90.0)
           (-45.0 45.0)
  end
  begin
     id 29
     name rfingers
     direction -1 -4.48984e-011 3.81946e-026   
     length 0.62824   
     axis -2.43714e-014 -90 -90   XYZ
    dof rx
    limits (0.0 90.0)
  end
  begin
     id 30
     name rthumb
     direction -0.707107 -6.34968e-011 0.707107   
     length 0.90203   
     axis -90 -45 -2.85299e-015   XYZ
    dof rx rz
    limits (-45.0 45.0)
           (-45.0 45.0)
  end
:hierarchy
  begin
    root lhipjoint rhipjoint lowerback
    lhipjoint lfemur
    lfemur ltibia
    ltibia lfoot
    lfoot ltoes
    rhipjoint rfemur
    rfemur rtibia
    rtibia rfoot
    rfoot rtoes
    lowerback upperback
    upperback thorax
    thorax lowerneck lclavicle rclavicle
    lowerneck upperneck
    upperneck head
    lclavicle lhumerus
    lhumerus lradius
    lradius lwrist
    lwrist lhand lthumb
    lhand lfingers
    rclavicle rhumerus
    rhumerus rradius
    rradius rwrist
    rwrist rhand rthumb
    rhand rfingers
  end

#!OML:ASF I:\Random Stuff\random\construction\7_22_03\Session 2\subj1.ASF
:FULLY-SPECIFIED
:DEGREES
1
root -19.8943 17.5295 -0.582255 -157.675 83.7605 -161.938
lowerback 1.87009 0.364195 2.82208
upperback -1.30493 0.636869 1.87137
thorax -2.38022 0.299023 0.314419
lowerneck -16.7051 0.707387 -0.356334
upperneck 28.4284 1.7378 -0.0186822
head 12.1303 0.959068 0.366403
rclavicle -4.09993e-015 3.97569e-016
rhumerus -32.4283 -1.62642 -79.1387
rradius 23.6259
rwrist 5.53249
rhand -18.551 18.5528
rfingers 7.12502
rthumb 7.73855 -11.2856
lclavicle -4.09993e-015 3.97569e-016
lhumerus -32.5669 -10.7174 93.7577
lradius 33.418
lwrist 24.311
lhand -20.6309 53.5495
lfingers 7.12502
lthumb 5.73072 83.4521
rfemur -5.48252 10.2158 25.2342
rtibia 15.3366
rfoot -7.98711 -21.6241
rtoes -18.2693
lfemur -14.8778 -14.0817 -11.8792
ltibia 25.1622
lfoot -16.4372 12.0447
ltoes -25.161
2
root -19.8931 17.5343 -0.630737 -155.885 83.7705 -160.167
lowerback 1.94561 0.338192 2.94992
upperback -1.33924 0.611528 1.88169
thorax -2.4575 0.28367 0.253958
lowerneck -16.9198 0.830751 -0.261325
upperneck 28.3345 1.82711 0.122032
head 12.136 1.02167 0.416546
rclavicle -9.6659e-015 -3.45885e-014
rhumerus -32.5758 -1.46124 -79.0984
rradius 23.2276
rwrist 5.64997
rhand -18.2873 18.7834
rfingers 7.12502
rthumb 7.99302 -11.0454
lclavicle -9.6659e-015 -3.45885e-014
lhumerus -32.5497 -10.5598 93.5385
lradius 33.4832
lwrist 24.1069
lhand -20.7372 53.6108
lfingers 7.12502
lthumb 5.62809 83.5161
rfemur -5.26411 10.7298 25.2677
rtibia 14.8702
rfoot -7.64432 -21.9319
rtoes -18.3552
lfemur -15.0157 -13.6238 -11.8819
ltibia 25.4405
lfoot -16.4549 11.6508
ltoes -25.1056
3
root -19.8947 17.5368 -0.681595 -154.344 83.8836 -158.675
lowerback 2.03247 0.417662 3.08869
upperback -1.3936 0.724948 1.79822
thorax -2.5579 0.335275 0.0852611
lowerneck -17.1258 0.858084 -0.107707
upperneck 28.2733 1.75951 0.273859
head 12.1538 1.02337 0.437497
rclavicle -4.00054e-015 -2.38542e-015
rhumerus -32.8946 -1.50395 -79.0669
rradius 23.0313
rwrist 5.79215
rhand -18.0269 18.9463
rfingers 7.12502
rthumb 8.24436 -10.8729
lclavicle -4.00054e-015 -2.38542e-015
lhumerus -32.4737 -10.4481 93.2664
lradius 33.3801
lwrist 23.8608
lhand -20.6146 53.3927
lfingers 7.12502
lthumb 5.74645 83.2948
rfemur -5.23135 11.423 25.205
rtibia 14.6575
rfoot -7.31216 -22.4316
rtoes -19.1609
lfemur -15.0957 -13.3704 -11.9612
ltibia 25.5821
lfoot -16.4859 11.5558
ltoes -25.0309
4
root -19.8966 17.5414 -0.729807 -153.394 84.0118 -157.796
lowerback 2.16187 0.496039 3.11905
upperback -1.48016 0.836661 1.72064
thorax -2.71612 0.386847 -0.0176348
lowerneck -17.3607 0.841032 0.0543239
upperneck 28.2803 1.64255 0.380064
head 12.2054 0.999075 0.43341
rclavicle 1.92076e-014 2.06736e-014
rhumerus -33.2831 -1.65871 -78.9497
rradius 22.9016
rwrist 6.15397
rhand -17.6931 19.147
rfingers 7.12502
rthumb 8.56652 -10.6592
lclavicle 1.92076e-014 2.06736e-014
lhumerus -32.3652 -10.1444 93.0094
lradius 33.1672
lwrist 23.567
lhand -20.5713 53.2417
lfingers 7.12502
lthumb 5.78825 83.1426
rfemur -5.23009 12.0229 25.0716
rtibia 14.5402
rfoot -7.11027 -22.8511
rtoes -19.432
lfemur -15.1606 -13.3294 -12.0911
ltibia 25.6625
lfoot -16.6038 11.6268
ltoes -24.3625
5
root -19.8954 17.5475 -0.775 -152.741 84.1652 -157.15
lowerback 2.31216 0.567343 3.05217
upperback -1.53248 0.935997 1.67476
thorax -2.85264 0.434799 -0.0337108
lowerneck -17.5999 0.805463 0.124117
upperneck 28.2554 1.54291 0.427349
head 12.2451 0.964182 0.425016
rclavicle -1.06101e-014 1.11319e-014
rhumerus -33.5773 -1.84689 -78.7822
rradius 22.7155
rwrist 6.65886
rhand -17.9814 18.7639
rfingers 7.12502
rthumb 8.28829 -11.0535
lclavicle -1.06101e-014 1.11319e-014
lhumerus -32.289 -9.85684 92.8594
lradius 32.9953
lwrist 23.5033
lhand -20.8163 53.4422
lfingers 7.12502
lthumb 5.55172 83.3494
rfemur -5.17548 12.6195 24.9396
rtibia 14.5724
rfoot -7.73981 -23.3733
rtoes -16.4189
lfemur -15.0859 -13.4049 -12.2677
ltibia 25.6651
lfoot -16.7464 11.8174
ltoes -23.5621
6
root -19.8941 17.554 -0.818533 -151.715 84.3659 -156.105
lowerback 2.44129 0.655796 3.01481
upperback -1.55918 1.05657 1.6165
thorax -2.94972 0.493177 -0.0801483
lowerneck -17.7864 0.775322 0.173949
upperneck 28.2177 1.45466 0.486932
head 12.2685 0.934522 0.425834
rclavicle 4.5969e-016 -1.31198e-014
rhumerus -33.765 -2.01182 -78.6737
rradius 22.4711
rwrist 7.07931
rhand -18.015 18.6826
rfingers 7.12502
rthumb 8.25587 -11.1361
lclavicle 4.5969e-016 -1.31198e-014
lhumerus -32.3015 -9.70013 92.7066
lradius 32.8931
lwrist 23.6546
lhand -21.0874 53.7467
lfingers 7.12502
lthumb 5.28991 83.6607
rfemur -5.11004 13.0537 24.8396
rtibia 14.6591
rfoot -9.48605 -23.8173
rtoes -9.74818
lfemur -14.9502 -13.2819 -12.4501
ltibia 25.6541
lfoot -16.8075 11.9522
ltoes -23.5769
7
root -19.8944 17.5568 -0.858092 -150.794 84.502 -155.193
lowerback 2.5794 0.667592 2.91928
upperback -1.61897 1.07573 1.59921
thorax -3.09012 0.502267 -0.0476544
lowerneck -17.9415 0.761562 0.206994
upperneck 28.2107 1.41621 0.487513
head 12.298 0.918205 0.415108
rclavicle -1.44989e-014 -6.75868e-015
rhumerus -33.8535 -2.15585 -78.5591
rradius 22.1275
rwrist 7.47017
rhand -17.9403 18.7845
rfingers 7.12502
rthumb 8.32796 -11.0313
lclavicle -1.44989e-014 -6.75868e-015
lhumerus -32.4011 -9.37528 92.4657
lradius 32.7526
lwrist 23.7802
lhand -21.0806 53.7821
lfingers 7.12502
lthumb 5.29657 83.6959
rfemur -5.10077 13.4499 24.7518
rtibia 14.7406
rfoot -10.544 -24.1909
rtoes -5.92846
lfemur -14.8839 -13.1313 -12.5924
ltibia 25.6612
lfoot -16.8278 11.9852
ltoes -23.7292
8
root -19.8938 17.5538 -0.894613 -149.332 84.5691 -153.77
lowerback 2.68709 0.663611 2.8776
upperback -1.7019 1.07568 1.58497
thorax -3.237 0.500778 -0.0408977
lowerneck -18.032 0.770406 0.193498
upperneck 28.1719 1.41747 0.515652
head 12.3007 0.918553 0.428165
rclavicle -1.39149e-014 -3.37934e-014
rhumerus -33.8769 -2.61151 -78.3896
rradius 21.689
rwrist 8.01757
rhand -17.845 18.9191
rfingers 7.12502
rthumb 8.41995 -10.8931
lclavicle -1.39149e-014 -3.37934e-014
lhumerus -32.529 -9.02921 92.1817
lradius 32.5525
lwrist 23.9351
lhand -20.8528 53.6955
lfingers 7.12502
lthumb 5.51643 83.6037
rfemur -5.22953 14.1498 24.7289
rtibia 14.8584
rfoot -10.2822 -24.8451
rtoes -6.78253
lfemur -14.8745 -13.012 -12.6282
ltibia 25.6405
lfoot -16.8169 11.9821
ltoes -23.772
9
root -19.8926 17.5564 -0.930583 -147.723 84.6267 -152.305
lowerback 2.65338 0.670811 2.88292
upperback -1.7807 1.08592 1.55541
thorax -3.29854 0.504313 -0.0748188
lowerneck -18.0857 0.801661 0.115034
upperneck 28.0794 1.44507 0.625357
head 12.2731 0.934056 0.486338
rclavicle -1.96424e-014 1.47101e-014
rhumerus -33.89 -3.13817 -78.2478
rradius 21.3671
rwrist 8.47796
rhand -17.7017 18.9456
rfingers 7.12502
rthumb 8.55819 -10.8609
lclavicle -1.96424e-014 1.47101e-014
lhumerus -32.565 -8.71457 91.9148
lradius 32.2666
lwrist 24.1543
lhand -20.7969 53.8422
lfingers 7.12502
lthumb 5.57047 83.749
rfemur -5.52388 14.7344 24.6696
rtibia 15.0306
rfoot -10.2678 -25.3766
rtoes -6.79208
lfemur -14.9635 -12.7115 -12.6428
ltibia 25.5588
lfoot -16.7132 11.8554
ltoes -24.2151
10
root -19.8921 17.5682 -0.966588 -147.534 84.7197 -152.32
lowerback 2.53993 0.642623 2.74753
upperback -1.83938 1.03865 1.52335
thorax -3.2976 0.483042 -0.028418
lowerneck -18.1825 0.815815 0.0979815
upperneck 28.0529 1.44312 0.693845
head 12.2816 0.938079 0.514947
rclavicle -1.81888e-014 0
rhumerus -33.8405 -3.44963 -78.1701
rradius 21.1604
rwrist 8.63272
rhand -17.5324 18.6947
rfingers 7.12502
rthumb 8.72162 -11.1051
lclavicle -1.81888e-014 0
lhumerus -32.6071 -8.54458 91.7183
lradius 32.0155
lwrist 24.5695
lhand -20.9854 54.0808
lfingers 7.12502
lthumb 5.38849 83.9923
rfemur -5.79076 14.8732 24.4453
rtibia 15.1975
rfoot -10.7467 -25.4442
rtoes -5.32479
lfemur -15.102 -12.4721 -12.8033
ltibia 25.4538
lfoot -16.6156 11.7683
ltoes -24.6872
11
root -19.8916 17.5807 -1.00134 -147.728 84.8352 -152.715
lowerback 2.41315 0.637549 2.59328
upperback -1.88218 1.01878 1.45015
thorax -3.27154 0.475428 -0.0150238
lowerneck -18.3616 0.778138 0.138642
upperneck 28.0699 1.37695 0.667407
head 12.3261 0.906849 0.488829
rclavicle -6.58474e-015 -1.23246e-014
rhumerus -33.7308 -4.00962 -78.0655
rradius 20.9396
rwrist 8.83899
rhand -17.4304 19.0051
rfingers 7.12502
rthumb 8.82 -10.7906
lclavicle -6.58474e-015 -1.23246e-014
lhumerus -32.7276 -8.7466 91.5907
lradius 31.8339
lwrist 25.0403
lhand -21.1265 54.3063
lfingers 7.12502
lthumb 5.25222 84.2212
rfemur -5.99125 14.7961 24.1925
rtibia 15.339
rfoot -11.1383 -25.2645
rtoes -4.38637
lfemur -15.2319 -12.3886 -12.9904
ltibia 25.3457
lfoot -16.5597 11.7778
ltoes -24.7123
12
root -19.8918 17.5846 -1.03427 -147.351 84.8981 -152.497
lowerback 2.32834 0.635188 2.53177
upperback -1.90752 1.00823 1.38942
thorax -3.24979 0.470649 -0.0415894
lowerneck -18.5767 0.745809 0.154639
upperneck 28.0373 1.32927 0.618005
head 12.358 0.876624 0.460524
rclavicle 6.12505e-015 4.77083e-015
rhumerus -33.6191 -4.5196 -78.0272
rradius 20.8589
rwrist 8.96596
rhand -17.4143 19.0736
rfingers 7.12502
rthumb 8.83559 -10.7215
lclavicle 6.12505e-015 4.77083e-015
lhumerus -32.7509 -8.88307 91.4706
lradius 31.4657
lwrist 25.0516
lhand -20.9833 54.3108
lfingers 7.12502
lthumb 5.39048 84.2223
rfemur -6.22783 14.9656 24.0232
rtibia 15.4501
rfoot -11.097 -25.4108
rtoes -4.70965
lfemur -15.3411 -12.4075 -13.0828
ltibia 25.2516
lfoot -16.5158 11.8537
ltoes -24.4678
13
root -19.8942 17.5824 -1.06737 -146.603 84.9097 -151.853
lowerback 2.35386 0.57041 2.50514
upperback -1.9498 0.923827 1.40488
thorax -3.31012 0.428771 -0.00705213
lowerneck -18.7322 0.758638 0.132893
upperneck 28.0337 1.37365 0.534394
head 12.3889 0.879816 0.440288
rclavicle -2.03506e-014 -1.68967e-014
rhumerus -33.5447 -4.39766 -78.1962
rradius 21.0071
rwrist 8.69754
rhand -17.5077 18.9601
rfingers 7.12502
rthumb 8.74538 -10.8387
lclavicle -2.03506e-014 -1.68967e-014
lhumerus -32.8064 -8.77593 91.3596
lradius 31.0311
lwrist 24.7959
lhand -20.7796 54.048
lfingers 7.12502
lthumb 5.58719 83.9543
rfemur -6.44257 15.3051 23.9026
rtibia 15.4602
rfoot -10.694 -25.7836
rtoes -5.86178
lfemur -15.4385 -12.6335 -13.1209
ltibia 25.2343
lfoot -16.5146 12.1404
ltoes -24.3735
14
root -19.8953 17.583 -1.10034 -145.611 84.944 -150.942
lowerback 2.39382 0.531059 2.49849
upperback -1.99069 0.874284 1.41211
thorax -3.3761 0.403628 0.00605143
lowerneck -18.7993 0.771153 0.1392
upperneck 28.0726 1.36115 0.621757
head 12.4176 0.886155 0.471212
rclavicle 1.10698e-014 -1.59028e-014
rhumerus -33.5265 -4.10782 -78.4749
rradius 21.3094
rwrist 8.26447
rhand -17.6785 18.8656
rfingers 7.12502
rthumb 8.58062 -10.9401
lclavicle 1.10698e-014 -1.59028e-014
lhumerus -32.9201 -8.81572 91.3062
lradius 30.6638
lwrist 24.6167
lhand -20.9203 54.0475
lfingers 7.12502
lthumb 5.45132 83.9574
rfemur -6.52714 15.4417 23.7927
rtibia 15.3351
rfoot -10.4451 -25.8651
rtoes -6.4228
lfemur -15.5378 -12.8257 -13.1606
ltibia 25.3083
lfoot -15.8494 12.6172
ltoes -28.3393
15
root -19.8926 17.5861 -1.13041 -144.609 85.0367 -150.003
lowerback 2.40219 0.535791 2.45538
upperback -2.00254 0.878833 1.39776
thorax -3.39331 0.406404 0.0150342
lowerneck -18.8738 0.783561 0.148974
upperneck 28.076 1.32824 0.763078
head 12.4332 0.890516 0.518411
rclavicle 3.39176e-015 3.37934e-015
rhumerus -33.526 -3.71383 -78.8305
rradius 21.7497
rwrist 7.69867
rhand -17.828 18.739
rfingers 7.12502
rthumb 8.43628 -11.0725
lclavicle 3.39176e-015 3.37934e-015
lhumerus -32.953 -8.88981 91.2601
lradius 30.2238
lwrist 24.3184
lhand -21.1042 54.1819
lfingers 7.12502
lthumb 5.27378 84.0963
rfemur -6.52369 15.4696 23.6784
rtibia 15.1662
rfoot -10.3428 -25.7482
rtoes -6.38975
lfemur -15.5953 -12.8052 -13.2362
ltibia 25.3915
lfoot -15.7119 12.875
ltoes -29.893
